<svg width="59" height="46" viewBox="0 0 59 46" fill="none" xmlns="http://www.w3.org/2000/svg">
<path d="M3.74393 0.0155513C2.79058 0.178162 1.93686 0.737845 1.3706 1.57147C0.804339 2.4051 0.57191 3.4444 0.724447 4.46071C0.876983 5.47703 1.40199 6.38713 2.18397 6.99079C2.96595 7.59446 3.94086 7.84224 4.89421 7.67963H15.6781L16.3251 9.59564L19.2727 19.1757L22.2203 28.7558C22.5079 29.7522 23.73 30.6718 24.6646 30.6718H49.827C50.8335 30.6718 51.9838 29.7522 52.2713 28.7558L58.0946 9.59564C58.3822 8.59931 57.9508 7.67963 56.9443 7.67963H25.0241L22.2922 2.16149C22.0012 1.52813 21.5519 0.992649 20.9938 0.61402C20.4357 0.235392 19.7904 0.0283006 19.1289 0.0155513L4.75042 0.0155513C4.53518 -0.00518377 4.31863 -0.00518377 4.10339 0.0155513C3.95974 0.00634612 3.81569 0.00634612 3.67204 0.0155513L3.74393 0.0155513ZM26.4619 38.3359C24.449 38.3359 22.8673 40.022 22.8673 42.168C22.8673 44.3139 24.449 46 26.4619 46C28.4749 46 30.0566 44.3139 30.0566 42.168C30.0566 40.022 28.4749 38.3359 26.4619 38.3359ZM48.0297 38.3359C46.0167 38.3359 44.4351 40.022 44.4351 42.168C44.4351 44.3139 46.0167 46 48.0297 46C50.0427 46 51.6243 44.3139 51.6243 42.168C51.6243 40.022 50.0427 38.3359 48.0297 38.3359Z" fill="#FFFBFB"/>
</svg>
